HIERARCHY
ROOT root
{
	OFFSET	0	13.1	24.9
	CHANNELS 6  Xposition Yposition Zposition Xrotation Yrotation Zrotation
	JOINT spine_1
	{
		OFFSET	0	9.99999	0
		CHANNELS 3  Xrotation Yrotation Zrotation
		JOINT spine_2
		{
			OFFSET	0	112	-10
			CHANNELS 3  Xrotation Yrotation Zrotation
			JOINT spine_3
			{
				OFFSET	0	206.5	19.3
				CHANNELS 3  Xrotation Yrotation Zrotation
				JOINT spine_4
				{
					OFFSET	0	110.4	14.6
					CHANNELS 3  Xrotation Yrotation Zrotation
					JOINT neck_1
					{
						OFFSET	0	71.8	-50.3
						CHANNELS 3  Xrotation Yrotation Zrotation
						JOINT neck_2
						{
							OFFSET	0	86.2	-25.8
							CHANNELS 3  Xrotation Yrotation Zrotation
							JOINT head_ee
							{
								OFFSET	0	179.8	-8.7
								CHANNELS 3  Xrotation Yrotation Zrotation
								End Site
								{
									OFFSET	1	0	0
								}
							}
						}
					}
					JOINT left_clavicle
					{
						OFFSET	-43.2	22.4	-70.8
						CHANNELS 3  Xrotation Yrotation Zrotation
						JOINT left_shoulder
						{
							OFFSET	-93.9	-5.79999	48.7
							CHANNELS 3  Xrotation Yrotation Zrotation
							JOINT left_elbow
							{
								OFFSET	-291.4	-30.8	15.2
								CHANNELS 3  Xrotation Yrotation Zrotation
								JOINT left_lowarm_twist
								{
									OFFSET	-110.7	-3.89999	13.6
									CHANNELS 3  Xrotation Yrotation Zrotation
									JOINT left_hand
									{
										OFFSET	-110.7	-3.89999	13.6
										CHANNELS 3  Xrotation Yrotation Zrotation
										JOINT left_ee
										{
											OFFSET	-80.8	-5.10001	12.1
											CHANNELS 3  Xrotation Yrotation Zrotation
											End Site
											{
												OFFSET	1	0	0
											}
										}
									}
								}
							}
						}
					}
					JOINT right_clavicle
					{
						OFFSET	43.2	22.4	-70.8
						CHANNELS 3  Xrotation Yrotation Zrotation
						JOINT right_shoulder
						{
							OFFSET	93.9	-5.79999	48.7
							CHANNELS 3  Xrotation Yrotation Zrotation
							JOINT right_elbow
							{
								OFFSET	291.4	-30.8	15.2
								CHANNELS 3  Xrotation Yrotation Zrotation
								JOINT right_lowarm_twist
								{
									OFFSET	110.7	-3.89999	13.6
									CHANNELS 3  Xrotation Yrotation Zrotation
									JOINT right_hand
									{
										OFFSET	110.7	-3.89999	13.6
										CHANNELS 3  Xrotation Yrotation Zrotation
										JOINT right_ee
										{
											OFFSET	80.8	-5.10001	12.1
											CHANNELS 3  Xrotation Yrotation Zrotation
											End Site
											{
												OFFSET	1	0	0
											}
										}
									}
								}
							}
						}
					}
				}
			}
		}
	}
	JOINT left_hip
	{
		OFFSET	-82.8	-127.5	0.300001
		CHANNELS 3  Xrotation Yrotation Zrotation
		JOINT left_knee
		{
			OFFSET	-28.2	-396.7	2.2
			CHANNELS 3  Xrotation Yrotation Zrotation
			JOINT left_ankle
			{
				OFFSET	-11.7	-411.3	35.4
				CHANNELS 3  Xrotation Yrotation Zrotation
				JOINT left_toes
				{
					OFFSET	0	-60	-88.6
					CHANNELS 3  Xrotation Yrotation Zrotation
					JOINT left_foot_ee
					{
						OFFSET	-22.5	-16.5	-42.2
						CHANNELS 3  Xrotation Yrotation Zrotation
						End Site
						{
							OFFSET	1	0	0
						}
					}
				}
			}
		}
	}
	JOINT right_hip
	{
		OFFSET	82.8	-127.5	0.300001
		CHANNELS 3  Xrotation Yrotation Zrotation
		JOINT right_knee
		{
			OFFSET	28.2	-396.7	2.2
			CHANNELS 3  Xrotation Yrotation Zrotation
			JOINT right_ankle
			{
				OFFSET	11.7	-411.3	35.4
				CHANNELS 3  Xrotation Yrotation Zrotation
				JOINT right_toes
				{
					OFFSET	0	-60	-88.6
					CHANNELS 3  Xrotation Yrotation Zrotation
					JOINT right_foot_ee
					{
						OFFSET	22.5	-16.5	-42.2
						CHANNELS 3  Xrotation Yrotation Zrotation
						End Site
						{
							OFFSET	1	0	0
						}
					}
				}
			}
		}
	}
}
MOTION
Frames: 13
Frame Time: 0.02
1041.4 574.639 -1682.42 -0.187531486585 24.099133487 9.18484518694 1.24459 -0.961213 -5.59232 1.26177 -0.603992 -5.64194 1.32454 0.465216 -5.65503 1.2802 -0.432259 -5.65763 -8.87292 3.2352 9.14742 -8.63746 -0.304118 9.74513 -0.0 0.0 -0.0 9.24776 3.93234 17.9225 -28.8761 -29.171 73.7053 0.487883 -13.5871 0.058121 -8.05669 -0.352541 0.966925 0.682548 26.4352 14.3343 -0.0 0.0 -0.0 -1.43381 1.6164 3.00315 7.33811 7.81324 -65.8713 2.45536 50.5666 -1.1599 13.6562 -0.27755 1.71826 3.56681 8.53457 -20.9059 0.0 0.0 0.0 23.7739 -25.8417 -5.92509 4.40376 -0.206234 -0.644025 2.63789 29.0485 -0.410067 -28.6332 0.0 0.0 -0.0 0.0 -0.0 -15.4107 -15.1712 -12.4801 -12.8225 -0.312097 -1.93895 26.2413 21.584 3.93512 36.7154 -0.0 -0.0 0.0 0.0 0.0 
1041.4 574.639 -1682.42 -0.188352877467 24.65177782 9.18683538059 1.24459 -0.961213 -5.59232 1.26177 -0.603992 -5.64194 1.32454 0.465216 -5.65503 1.2802 -0.432259 -5.65763 -8.87292 3.2352 9.14742 -8.63746 -0.304118 9.74513 -0.0 0.0 -0.0 9.24776 3.93234 17.9225 -28.8761 -29.171 73.7053 0.487883 -13.5871 0.058121 -8.05669 -0.352541 0.966925 0.682548 26.4352 14.3343 -0.0 0.0 -0.0 -1.43381 1.6164 3.00315 7.33811 7.81324 -65.8713 2.45536 50.5666 -1.1599 13.6562 -0.27755 1.71826 3.56681 8.53457 -20.9059 0.0 0.0 0.0 23.7739 -25.8417 -5.92509 4.40376 -0.206234 -0.644025 2.63789 29.0485 -0.410067 -28.6332 0.0 0.0 -0.0 0.0 -0.0 -15.4107 -15.1712 -12.4801 -12.8225 -0.312097 -1.93895 26.2413 21.584 3.93512 36.7154 -0.0 -0.0 0.0 0.0 0.0 
1041.4 574.639 -1682.42 -0.189433046554 25.3542981863 9.18939093978 1.24459 -0.961213 -5.59232 1.26177 -0.603992 -5.64194 1.32454 0.465216 -5.65503 1.2802 -0.432259 -5.65763 -8.87292 3.2352 9.14742 -8.63746 -0.304118 9.74513 -0.0 0.0 -0.0 9.24776 3.93234 17.9225 -28.8761 -29.171 73.7053 0.487883 -13.5871 0.058121 -8.05669 -0.352541 0.966925 0.682548 26.4352 14.3343 -0.0 0.0 -0.0 -1.43381 1.6164 3.00315 7.33811 7.81324 -65.8713 2.45536 50.5666 -1.1599 13.6562 -0.27755 1.71826 3.56681 8.53457 -20.9059 0.0 0.0 0.0 23.7739 -25.8417 -5.92509 4.40376 -0.206234 -0.644025 2.63789 29.0485 -0.410067 -28.6332 0.0 0.0 -0.0 0.0 -0.0 -15.4107 -15.1712 -12.4801 -12.8225 -0.312097 -1.93895 26.2413 21.584 3.93512 36.7154 -0.0 -0.0 0.0 0.0 0.0 
1041.4 574.639 -1682.42 -0.189873517168 25.6333604067 9.19041430199 1.24459 -0.961213 -5.59232 1.26177 -0.603992 -5.64194 1.32454 0.465216 -5.65503 1.2802 -0.432259 -5.65763 -8.87292 3.2352 9.14742 -8.63746 -0.304118 9.74513 -0.0 0.0 -0.0 9.24776 3.93234 17.9225 -28.8761 -29.171 73.7053 0.487883 -13.5871 0.058121 -8.05669 -0.352541 0.966925 0.682548 26.4352 14.3343 -0.0 0.0 -0.0 -1.43381 1.6164 3.00315 7.33811 7.81324 -65.8713 2.45536 50.5666 -1.1599 13.6562 -0.27755 1.71826 3.56681 8.53457 -20.9059 0.0 0.0 0.0 23.7739 -25.8417 -5.92509 4.40376 -0.206234 -0.644025 2.63789 29.0485 -0.410067 -28.6332 0.0 0.0 -0.0 0.0 -0.0 -15.4107 -15.1712 -12.4801 -12.8225 -0.312097 -1.93895 26.2413 21.584 3.93512 36.7154 -0.0 -0.0 0.0 0.0 0.0 
1041.4 574.639 -1682.42 -0.190654324148 26.1181112527 9.19220340096 1.24459 -0.961213 -5.59232 1.26177 -0.603992 -5.64194 1.32454 0.465216 -5.65503 1.2802 -0.432259 -5.65763 -8.87292 3.2352 9.14742 -8.63746 -0.304118 9.74513 -0.0 0.0 -0.0 9.24776 3.93234 17.9225 -28.8761 -29.171 73.7053 0.487883 -13.5871 0.058121 -8.05669 -0.352541 0.966925 0.682548 26.4352 14.3343 -0.0 0.0 -0.0 -1.43381 1.6164 3.00315 7.33811 7.81324 -65.8713 2.45536 50.5666 -1.1599 13.6562 -0.27755 1.71826 3.56681 8.53457 -20.9059 0.0 0.0 0.0 23.7739 -25.8417 -5.92509 4.40376 -0.206234 -0.644025 2.63789 29.0485 -0.410067 -28.6332 0.0 0.0 -0.0 0.0 -0.0 -15.4107 -15.1712 -12.4801 -12.8225 -0.312097 -1.93895 26.2413 21.584 3.93512 36.7154 -0.0 -0.0 0.0 0.0 0.0 
1025.25566167 568.13 -1709.31577915 0.0798755908907 25.627160615 10.4041116491 1.24119 -1.01664 -5.87297 1.26014 -0.641536 -5.92551 1.33012 0.480976 -5.94064 1.28121 -0.461572 -5.94218 -7.16504 3.35788 7.89547 -6.99133 0.544456 8.56776 -0.0 0.0 -0.0 9.4796 3.48542 18.4083 -28.6525 -29.1553 73.8696 0.450681 -12.5853 0.0496975 -8.02829 -0.351061 0.963608 0.850066 26.5451 15.3358 -0.0 0.0 -0.0 -1.70848 1.20605 3.48261 6.28049 7.71039 -66.4383 2.30494 48.7809 -1.04521 12.9046 -0.27299 1.62237 3.38765 6.0732 -20.7239 0.0 0.0 0.0 23.5011 -25.5532 -6.56941 -0.664752 0.0268005 0.098493 3.23379 28.9882 -0.501787 -28.1257 0.0 0.0 -0.0 0.0 -0.0 -17.8779 -14.0989 -13.8967 -13.9147 -0.318489 -2.1064 28.069 21.8418 4.16973 36.4138 -0.0 -0.0 0.0 0.0 0.0 
1024.98427881 568.13 -1709.15100622 0.0802694121888 26.2070553337 10.4032106128 1.24119 -1.01664 -5.87297 1.26014 -0.641536 -5.92551 1.33012 0.480976 -5.94064 1.28121 -0.461572 -5.94218 -7.16504 3.35788 7.89547 -6.99133 0.544456 8.56776 -0.0 0.0 -0.0 9.4796 3.48542 18.4083 -28.6525 -29.1553 73.8696 0.450681 -12.5853 0.0496975 -8.02829 -0.351061 0.963608 0.850066 26.5451 15.3358 -0.0 0.0 -0.0 -1.70848 1.20605 3.48261 6.28049 7.71039 -66.4383 2.30494 48.7809 -1.04521 12.9046 -0.27299 1.62237 3.38765 6.0732 -20.7239 0.0 0.0 0.0 23.5011 -25.5532 -6.56941 -0.664752 0.0268005 0.098493 3.23379 28.9882 -0.501787 -28.1257 0.0 0.0 -0.0 0.0 -0.0 -17.8779 -14.0989 -13.8967 -13.9147 -0.318489 -2.1064 28.069 21.8418 4.16973 36.4138 -0.0 -0.0 0.0 0.0 0.0 
987.698621196 563.688 -1761.15416359 -0.0499181987439 25.0794388187 11.3104193663 1.33069 -0.963286 -6.14244 1.35148 -0.571243 -6.19103 1.41646 0.591079 -6.18917 1.36327 -0.391866 -6.20491 -3.33534 3.6816 6.14648 -3.2343 1.93186 6.91922 -0.0 0.0 -0.0 10.4655 3.26574 20.4015 -27.8661 -29.2223 72.9043 0.457802 -12.7777 0.0512609 -7.73291 -0.335765 0.929065 0.902806 25.8377 15.4258 -0.0 0.0 -0.0 -1.98063 0.836387 3.96008 2.869 7.25811 -65.6197 1.83118 42.2075 -0.706783 12.9249 -0.273129 1.62496 3.41872 2.97369 -22.2891 0.0 0.0 0.0 23.6266 -23.1852 -6.38211 -5.3752 0.183695 0.804181 -1.14324 29.5058 0.179739 -28.3358 0.0 0.0 -0.0 0.0 -0.0 -18.7804 -10.3257 -14.0268 -15.5152 -0.322086 -2.35194 25.6805 22.2043 3.88727 37.0787 -0.0 -0.0 0.0 0.0 0.0 
975.438072211 564.262 -1777.26927921 0.496520261557 24.6344754278 11.2209878661 1.19675 -0.871848 -6.1162 1.21742 -0.481647 -6.15906 1.27302 0.689071 -6.13939 1.22058 -0.287273 -6.17114 -3.7373 3.27611 8.69998 -3.52411 -0.736362 9.49323 -0.0 0.0 -0.0 10.4161 3.04294 20.3183 -26.6595 -29.8465 72.0379 0.570996 -15.794 0.0792022 -5.48739 -0.22536 0.664002 0.852917 25.7498 15.1075 -0.0 0.0 -0.0 -2.05865 3.10626 4.4614 1.27084 6.33704 -66.6847 1.5822 38.0856 -0.546147 15.6518 -0.283551 1.97307 3.02212 2.488 -19.6345 0.0 0.0 0.0 24.0153 -21.9487 -6.07083 -10.2453 0.284374 1.54452 7.25056 29.2442 -1.11533 -26.2015 0.0 0.0 -0.0 0.0 -0.0 -18.2502 -9.13697 -13.5156 -19.3793 -0.302507 -2.94437 21.7043 20.1099 3.29997 38.3071 -0.0 -0.0 0.0 0.0 0.0 
958.441530041 563.002 -1787.98846625 0.132690022105 29.7513294056 10.3752248834 1.38379 -1.1489 -5.80024 1.40215 -0.77814 -5.86131 1.48482 0.317991 -5.90403 1.43674 -0.616781 -5.88041 -2.04737 3.13977 7.78204 -1.87787 -0.510926 8.59829 -0.0 0.0 -0.0 10.6048 1.64625 20.8051 -22.7633 -27.4772 72.914 0.691478 -18.9083 0.115146 -11.5029 -0.544262 1.36383 -0.353547 26.2617 8.38614 -0.0 0.0 -0.0 -2.32337 -0.548093 4.40939 -0.11686 6.17836 -66.0919 1.46319 35.9331 -0.474497 17.8829 -0.27975 2.25799 2.46193 2.02699 -15.8699 0.0 0.0 0.0 26.4241 -21.4932 -1.68219 -13.9031 0.318438 2.10463 12.0431 28.6584 -1.81893 -32.2389 0.0 0.0 -0.0 0.0 -0.0 -13.832 -5.50904 -13.9083 -25.9746 -0.177083 -3.94811 20.2331 12.6254 2.93092 40.1349 -0.0 -0.0 0.0 0.0 0.0 
956.861969377 563.002 -1786.72786251 0.133856763853 30.6137440145 10.3729042596 1.38379 -1.1489 -5.80024 1.40215 -0.77814 -5.86131 1.48482 0.317991 -5.90403 1.43674 -0.616781 -5.88041 -2.04737 3.13977 7.78204 -1.87787 -0.510926 8.59829 -0.0 0.0 -0.0 10.6048 1.64625 20.8051 -22.7633 -27.4772 72.914 0.691478 -18.9083 0.115146 -11.5029 -0.544262 1.36383 -0.353547 26.2617 8.38614 -0.0 0.0 -0.0 -2.32337 -0.548093 4.40939 -0.11686 6.17836 -66.0919 1.46319 35.9331 -0.474497 17.8829 -0.27975 2.25799 2.46193 2.02699 -15.8699 0.0 0.0 0.0 26.4241 -21.4932 -1.68219 -13.9031 0.318438 2.10463 12.0431 28.6584 -1.81893 -32.2389 0.0 0.0 -0.0 0.0 -0.0 -13.832 -5.50904 -13.9083 -25.9746 -0.177083 -3.94811 20.2331 12.6254 2.93092 40.1349 -0.0 -0.0 0.0 0.0 0.0 
954.381129514 563.002 -1784.66737152 0.135826272722 31.9899805133 10.3691137127 1.38379 -1.1489 -5.80024 1.40215 -0.77814 -5.86131 1.48482 0.317991 -5.90403 1.43674 -0.616781 -5.88041 -2.04737 3.13977 7.78204 -1.87787 -0.510926 8.59829 -0.0 0.0 -0.0 10.6048 1.64625 20.8051 -22.7633 -27.4772 72.914 0.691478 -18.9083 0.115146 -11.5029 -0.544262 1.36383 -0.353547 26.2617 8.38614 -0.0 0.0 -0.0 -2.32337 -0.548093 4.40939 -0.11686 6.17836 -66.0919 1.46319 35.9331 -0.474497 17.8829 -0.27975 2.25799 2.46193 2.02699 -15.8699 0.0 0.0 0.0 26.4241 -21.4932 -1.68219 -13.9031 0.318438 2.10463 12.0431 28.6584 -1.81893 -32.2389 0.0 0.0 -0.0 0.0 -0.0 -13.832 -5.50904 -13.9083 -25.9746 -0.177083 -3.94811 20.2331 12.6254 2.93092 40.1349 -0.0 -0.0 0.0 0.0 0.0 
936.988951995 570.056 -1799.05411917 -0.150964777178 34.4397747722 10.4509763262 1.50134 -1.21289 -5.85996 1.52005 -0.83822 -5.92494 1.60929 0.257378 -5.97822 1.56012 -0.688295 -5.94416 -1.93441 1.45698 7.27653 -1.77017 -3.15734 7.85783 -0.0 0.0 -0.0 10.9011 3.55046 21.2629 -22.0708 -29.8968 70.6382 0.844233 -22.6949 0.169424 -9.27851 -0.417769 1.10894 -0.0467152 27.0436 10.3962 -0.0 0.0 -0.0 -2.66676 -3.41408 4.58779 -0.249309 5.51014 -66.2316 1.21709 31.0851 -0.338515 18.8225 -0.27483 2.37791 2.73386 6.62973 -15.8355 0.0 0.0 0.0 25.706 -22.1425 -0.391631 -13.3596 0.315639 2.02129 11.2044 28.791 -1.69829 -34.9922 0.0 0.0 -0.0 0.0 -0.0 -7.75278 0.612229 -12.996 -32.5384 0.0615009 -4.92664 15.3202 13.0981 2.28005 39.6055 -0.0 -0.0 0.0 0.0 0.0 
